<svg xmlns="http://www.w3.org/2000/svg" version="1.1" xmlns:xlink="http://www.w3.org/1999/xlink" xmlns:svgjs="http://svgjs.dev/svgjs" width="128" height="128" viewBox="0 0 128 128"><g transform="matrix(0.8046875,0,0,0.8046875,12.760752631578946,35.792803449426614)"><svg viewBox="0 0 95 52" data-background-color="#ffffff" preserveAspectRatio="xMidYMid meet" height="70" width="128" xmlns="http://www.w3.org/2000/svg" xmlns:xlink="http://www.w3.org/1999/xlink"><g id="tight-bounds" transform="matrix(1,0,0,1,-0.24049999999999727,0.03981972824084323)"><svg viewBox="0 0 95.481 51.920360543518306" height="51.920360543518306" width="95.481"><g><svg viewBox="0 0 95.481 51.920360543518306" height="51.920360543518306" width="95.481"><g><svg viewBox="0 0 95.481 51.920360543518306" height="51.920360543518306" width="95.481"><g id="textblocktransform"><svg viewBox="0 0 95.481 51.920360543518306" height="51.920360543518306" width="95.481" id="textblock"><g><svg viewBox="0 0 95.481 51.920360543518306" height="51.920360543518306" width="95.481"><g><svg viewBox="0 0 95.481 51.920360543518306" height="51.920360543518306" width="95.481"><g><svg xmlns:dc="http://purl.org/dc/elements/1.1/" xmlns:cc="http://creativecommons.org/ns#" xmlns:rdf="http://www.w3.org/1999/02/22-rdf-syntax-ns#" xmlns:svg="http://www.w3.org/2000/svg" xmlns:sodipodi="http://sodipodi.sourceforge.net/DTD/sodipodi-0.dtd" xmlns:inkscape="http://www.inkscape.org/namespaces/inkscape" xmlns="http://www.w3.org/2000/svg" xmlns:xlink="http://www.w3.org/1999/xlink" version="1.1" x="0" y="0" viewBox="405.46608860909873 2.5 1543.6478206429838 839.4000000000001" enable-background="new 1206.1 0 841.9 841.9" xml:space="preserve" width="95.481" height="51.920360543518306" class="icon-icon-0" data-fill-palette-color="accent" id="icon-0"><path d="M1901.1 415.2c10.9-24.9 0.1-31.7-7.1-70.6-3.3-18-9.4-37.3-19.4-55.7l-436.3 114.4c-1.3 16.8-0.9 33 1.5 47.8 8.3 52.7 39.5 117.3 59.8 144.8 20.3 27.5 30.2 47.7 31.1 65.8 2.7 52.2-8.6 102.9-40.9 180.1 0 0 269 0 292.8 0.1-5.8-11.6-9.3-18.4-11.4-37.1-2.8-23.9 1.2-51.6 7.2-70 4.1-12.4 19-21 33.4-21.2 23.6-0.4 44.8 7 81.5 0.2 19-3.5 18-31.7 13.2-51.5-4.7-19.7 10.9-23.9 10.7-32-0.1-4.5 1.8-7.9-9.5-14.7 20.7-11.2 13.5-21.6 9.8-29.9-13.5-29.5 1.6-29.4 7.6-31.7 6-2.4 22.2-5.4 23.9-18.5 1.8-13.2-18.1-37.9-33.7-58.8C1899.7 455.7 1892.3 435.6 1901.1 415.2z" fill="#000000" data-fill-palette-color="accent"></path><path d="M1377 35.3c-35.1 32.6-54.5 80-67.6 141.7-12.4 58.3 1.7 121.6 35.2 164.2 20.8 26.5 57.3 49.5 93.8 62.1L1438 2.5C1417.1 7.7 1395.9 17.8 1377 35.3z" fill="#000000" data-fill-palette-color="accent"></path><circle cx="1647.1" cy="264.9" r="35" fill="#000000" data-fill-palette-color="accent"></circle><path d="M1623.7 179L1623.7 179c0.7 12.3 10.9 22.1 23.4 22.1 12.5 0 22.7-9.8 23.3-22.1h0l13.7-130.7c0.5-2.5 0.8-5.2 0.8-7.9 0-20.9-17-37.9-37.9-37.9-20.9 0-37.9 17-37.9 37.9 0 2.7 0.3 5.3 0.8 7.9L1623.7 179z" fill="#000000" data-fill-palette-color="accent"></path></svg></g></svg></g></svg></g></svg></g></svg></g></svg></g><defs></defs></svg><rect width="95.481" height="51.920360543518306" fill="none" stroke="none" visibility="hidden"></rect></g></svg></g></svg>