<svg xmlns="http://www.w3.org/2000/svg" version="1.1" xmlns:xlink="http://www.w3.org/1999/xlink" xmlns:svgjs="http://svgjs.dev/svgjs" width="1000" height="227" viewBox="0 0 1000 227"><g transform="matrix(1,0,0,1,-0.6060606060606233,0.042808685226248144)"><svg viewBox="0 0 396 90" data-background-color="#ffffff" preserveAspectRatio="xMidYMid meet" height="227" width="1000" xmlns="http://www.w3.org/2000/svg" xmlns:xlink="http://www.w3.org/1999/xlink"><g id="tight-bounds" transform="matrix(1,0,0,1,0.2400000000000091,-0.01697260647736698)"><svg viewBox="0 0 395.52 90.03394521295473" height="90.03394521295473" width="395.52"><g><svg viewBox="0 0 739.1919059056058 168.26548229714024" height="90.03394521295473" width="395.52"><g><rect width="5.489998134418899" height="73.0530313880493" x="323.81018490621597" y="47.606225454545466" fill="#ffffff" opacity="1" stroke-width="0" stroke="transparent" fill-opacity="1" class="rect-r$-0" data-fill-palette-color="primary" rx="1%" id="r$-0" data-palette-color="#ffffff"></rect></g><g transform="matrix(1,0,0,1,343.6719059056058,53.69397807021625)"><svg viewBox="0 0 395.52 60.87752615670775" height="60.87752615670775" width="395.52"><g id="textblocktransform"><svg viewBox="0 0 395.52 60.87752615670775" height="60.87752615670775" width="395.52" id="textblock"><g><svg viewBox="0 0 395.52 60.87752615670775" height="60.87752615670775" width="395.52"><g transform="matrix(1,0,0,1,0,0)"><svg width="395.52" viewBox="1.4 -32.6 215.04 33.1" height="60.87752615670775" data-palette-color="#ffffff"><path d="M18.2-32.6Q23.45-32.6 27.65-30.65L27.65-30.65 26.2-24.55 25.55-24.45Q23.1-25.85 21.18-26.48 19.25-27.1 17.05-27.1L17.05-27.1Q12.6-27.1 10.55-24.45 8.5-21.8 8.5-15.75L8.5-15.75Q8.5-11.75 9.38-9.4 10.25-7.05 12.1-5.98 13.95-4.9 17-4.9L17-4.9Q18.05-4.9 18.98-5.05 19.9-5.2 21.25-5.6L21.25-5.6 21.35-8.35 21.25-13.45 27.5-13.9 27.35-9.4 27.5-1.55Q21.5 0.45 16.45 0.45L16.45 0.45Q8.95 0.45 5.18-3.65 1.4-7.75 1.4-15.4L1.4-15.4Q1.4-23.75 5.78-28.18 10.15-32.6 18.2-32.6L18.2-32.6ZM58.8-32.2L58.55-15.85 58.5-11.6Q58.55-5.85 55.15-2.7 51.75 0.45 45.4 0.45L45.4 0.45Q39.3 0.45 36.1-2.6 32.9-5.65 33.05-11.35L33.05-11.35 33.1-16 32.95-32.2 39.75-32.2 39.4-12.25Q39.35-8.6 40.95-6.85 42.55-5.1 45.8-5.1L45.8-5.1Q52.3-5.1 52.25-11.9L52.25-11.9 51.9-32.2 58.8-32.2ZM82.59-12.8Q86.5-6.6 90.34-1.6L90.34-1.6 90.25-0.85Q87 0.3 83.59 0.5L83.59 0.5 82.9-0.05Q79.3-6.25 77.05-10.85L77.05-10.85 72.2-10.85 72.2-10.2 72.5 0 65.7 0 66.05-9.6 65.7-32.2 78.05-32.25Q83.09-32.25 85.84-29.78 88.59-27.3 88.59-22.7L88.59-22.7Q88.59-19.6 87.02-17.03 85.45-14.45 82.59-12.8L82.59-12.8ZM72.5-27.05L72.3-16.1 77.25-15.9Q81.5-17.35 81.5-22.05L81.5-22.05Q81.5-24.6 80.12-25.88 78.75-27.15 75.9-27.25L75.9-27.25 72.5-27.05ZM119.39-32.2L119.14-15.85 119.09-11.6Q119.14-5.85 115.74-2.7 112.34 0.45 105.99 0.45L105.99 0.45Q99.89 0.45 96.69-2.6 93.49-5.65 93.64-11.35L93.64-11.35 93.69-16 93.54-32.2 100.34-32.2 99.99-12.25Q99.94-8.6 101.54-6.85 103.14-5.1 106.39-5.1L106.39-5.1Q112.89-5.1 112.84-11.9L112.84-11.9 112.49-32.2 119.39-32.2ZM153.49-32.2L153.14-10.2 153.34 0 146.59 0 146.89-9.6 146.84-13.35 139.59-13.4 133.04-13.3 132.99-10.2 133.24 0 126.49 0 126.84-9.6 126.49-32.2 133.34-32.2 133.14-18.9 140.04-18.8 146.79-18.9 146.59-32.2 153.49-32.2ZM186.09-32.2L185.84-15.85 185.79-11.6Q185.84-5.85 182.44-2.7 179.04 0.45 172.69 0.45L172.69 0.45Q166.59 0.45 163.39-2.6 160.19-5.65 160.34-11.35L160.34-11.35 160.39-16 160.24-32.2 167.04-32.2 166.69-12.25Q166.64-8.6 168.24-6.85 169.84-5.1 173.09-5.1L173.09-5.1Q179.59-5.1 179.54-11.9L179.54-11.9 179.19-32.2 186.09-32.2ZM209.99-16.7Q213.29-15.9 214.86-14.03 216.44-12.15 216.44-9.1L216.44-9.1Q216.44 0.25 201.79 0.25L201.79 0.25Q197.49 0.25 192.99 0L192.99 0 193.34-9.6 192.99-32.2 204.44-32.25Q209.39-32.25 212.14-30.18 214.89-28.1 214.89-24.2L214.89-24.2Q214.89-21.6 213.61-19.65 212.34-17.7 209.99-16.7L209.99-16.7ZM207.94-23.3Q207.94-25.5 206.64-26.43 205.34-27.35 202.09-27.35L202.09-27.35 199.64-27.35 199.49-18.6 204.19-18.45Q206.09-18.95 207.01-20.1 207.94-21.25 207.94-23.3L207.94-23.3ZM202.94-4.6Q206.09-4.6 207.81-5.85 209.54-7.1 209.54-9.45L209.54-9.45Q209.54-13 204.94-13.85L204.94-13.85 199.39-13.75 199.34-10.2 199.49-4.8Q201.24-4.6 202.94-4.6L202.94-4.6Z" opacity="1" transform="matrix(1,0,0,1,0,0)" fill="#ffffff" class="wordmark-text-0" data-fill-palette-color="primary" id="text-0"></path></svg></g></svg></g></svg></g></svg></g><g><svg viewBox="0 0 309.43846204124503 168.26548229714024" height="168.26548229714024" width="309.43846204124503"><g><svg xmlns:dc="http://purl.org/dc/elements/1.1/" xmlns:cc="http://creativecommons.org/ns#" xmlns:rdf="http://www.w3.org/1999/02/22-rdf-syntax-ns#" xmlns:svg="http://www.w3.org/2000/svg" xmlns:sodipodi="http://sodipodi.sourceforge.net/DTD/sodipodi-0.dtd" xmlns:inkscape="http://www.inkscape.org/namespaces/inkscape" xmlns="http://www.w3.org/2000/svg" xmlns:xlink="http://www.w3.org/1999/xlink" version="1.1" x="0" y="0" viewBox="405.46608860909873 2.5 1543.6478206429838 839.4000000000001" enable-background="new 1206.1 0 841.9 841.9" xml:space="preserve" width="309.43846204124503" height="168.26548229714024" class="icon-icon-0" data-fill-palette-color="accent" id="icon-0"><path d="M1901.1 415.2c10.9-24.9 0.1-31.7-7.1-70.6-3.3-18-9.4-37.3-19.4-55.7l-436.3 114.4c-1.3 16.8-0.9 33 1.5 47.8 8.3 52.7 39.5 117.3 59.8 144.8 20.3 27.5 30.2 47.7 31.1 65.8 2.7 52.2-8.6 102.9-40.9 180.1 0 0 269 0 292.8 0.1-5.8-11.6-9.3-18.4-11.4-37.1-2.8-23.9 1.2-51.6 7.2-70 4.1-12.4 19-21 33.4-21.2 23.6-0.4 44.8 7 81.5 0.2 19-3.5 18-31.7 13.2-51.5-4.7-19.7 10.9-23.9 10.7-32-0.1-4.5 1.8-7.9-9.5-14.7 20.7-11.2 13.5-21.6 9.8-29.9-13.5-29.5 1.6-29.4 7.6-31.7 6-2.4 22.2-5.4 23.9-18.5 1.8-13.2-18.1-37.9-33.7-58.8C1899.7 455.7 1892.3 435.6 1901.1 415.2z" fill="#ffffff" data-fill-palette-color="accent"></path><path d="M1377 35.3c-35.1 32.6-54.5 80-67.6 141.7-12.4 58.3 1.7 121.6 35.2 164.2 20.8 26.5 57.3 49.5 93.8 62.1L1438 2.5C1417.1 7.7 1395.9 17.8 1377 35.3z" fill="#ffffff" data-fill-palette-color="accent"></path><circle cx="1647.1" cy="264.9" r="35" fill="#ffffff" data-fill-palette-color="accent"></circle><path d="M1623.7 179L1623.7 179c0.7 12.3 10.9 22.1 23.4 22.1 12.5 0 22.7-9.8 23.3-22.1h0l13.7-130.7c0.5-2.5 0.8-5.2 0.8-7.9 0-20.9-17-37.9-37.9-37.9-20.9 0-37.9 17-37.9 37.9 0 2.7 0.3 5.3 0.8 7.9L1623.7 179z" fill="#ffffff" data-fill-palette-color="accent"></path></svg></g></svg></g></svg></g><defs></defs></svg><rect width="395.52" height="90.03394521295473" fill="none" stroke="none" visibility="hidden"></rect></g></svg></g></svg>